<svg width="78" height="100" viewBox="0 0 78 100" fill="none" xmlns="http://www.w3.org/2000/svg">
<rect width="78" height="100" rx="4" fill="#3164C2"/>
<rect y="24" width="78" height="76" rx="4" fill="#E6E6E6"/>
<path d="M25.152 76.352C22.4 76.352 20.448 75.616 19.296 74.144C18.144 72.6507 17.568 70.5067 17.568 67.712V58.432C17.568 55.5733 18.1333 53.4187 19.264 51.968C20.416 50.496 22.3787 49.76 25.152 49.76C27.7973 49.76 29.664 50.4107 30.752 51.712C31.8613 52.992 32.416 54.8373 32.416 57.248V59.424H27.296V57.024C27.296 56.256 27.2533 55.6373 27.168 55.168C27.104 54.6987 26.912 54.3147 26.592 54.016C26.2933 53.696 25.824 53.536 25.184 53.536C24.224 53.536 23.6053 53.8453 23.328 54.464C23.0507 55.0827 22.912 55.9893 22.912 57.184V68.96C22.912 70.176 23.072 71.0827 23.392 71.68C23.712 72.2773 24.3093 72.576 25.184 72.576C26.08 72.576 26.656 72.2773 26.912 71.68C27.168 71.0613 27.296 70.1547 27.296 68.96V66.432H32.416V68.576C32.416 71.0507 31.872 72.9707 30.784 74.336C29.696 75.68 27.8187 76.352 25.152 76.352ZM39.0955 64.192H34.5195V61.248H39.0955V56.224H42.3595V61.248H46.9995V64.192H42.3595V69.344H39.0955V64.192ZM53.2205 64.192H48.6445V61.248H53.2205V56.224H56.4845V61.248H61.1245V64.192H56.4845V69.344H53.2205V64.192Z" fill="#3164C2"/>
</svg>
