<svg width="65" height="51" viewBox="0 0 65 51" fill="none" xmlns="http://www.w3.org/2000/svg">
<g clip-path="url(#clip0)">
<path d="M1.31127 10.9709H3.70222V5.75521C3.70221 5.40911 3.83897 5.07703 4.08271 4.83131C4.32644 4.58559 4.6574 4.44615 5.00349 4.44336H7.33096V1.31185C7.33236 0.963439 7.47175 0.629777 7.71861 0.383909C7.96547 0.13804 8.29969 -2.8097e-06 8.6481 0L29.9445 0C30.2924 0 30.6261 0.138212 30.8721 0.384232C31.1181 0.630251 31.2563 0.963925 31.2563 1.31185V4.44336H59.9795C60.3274 4.44336 60.6611 4.58157 60.9071 4.82759C61.1531 5.07361 61.2913 5.40728 61.2913 5.75521V10.9709H63.6876C64.0355 10.9709 64.3692 11.1091 64.6152 11.3551C64.8612 11.6011 64.9994 11.9348 64.9994 12.2827C64.9996 12.3771 64.989 12.4711 64.9677 12.5631L60.3762 46.3167C60.1223 49.316 58.7893 50.3581 56.1762 50.3581H7.7753C4.89241 50.3581 3.85562 49.0568 3.54353 46.2744L-0.000578606 12.4202C-0.0360877 12.0745 0.0670774 11.7288 0.286263 11.459C0.505448 11.1892 0.822734 11.0175 1.16845 10.9814H1.30598L1.31127 10.9709Z" fill="#3164C2"/>
<path d="M3.48059 12.0764H1.24304L5.06222 47.0203C5.15214 47.8878 5.71814 48.75 6.64913 48.75H57.1712C58.1286 48.75 58.6629 47.8402 58.7581 46.9832L63.667 12.0711L3.48059 12.0764Z" fill="#7C9FDE"/>
</g>
<defs>
<clipPath id="clip0">
<rect width="65" height="50.3581" fill="white"/>
</clipPath>
</defs>
</svg>
