<svg width="26" height="24" viewBox="0 0 26 24" fill="none" xmlns="http://www.w3.org/2000/svg">
<path d="M14.6667 16.6667C14.6667 17.0203 14.5262 17.3594 14.2762 17.6095C14.0261 17.8595 13.687 18 13.3334 18H2.66671C2.31309 18 1.97395 17.8595 1.7239 17.6095C1.47385 17.3594 1.33337 17.0203 1.33337 16.6667V7.33333C1.33337 6.97971 1.47385 6.64057 1.7239 6.39052C1.97395 6.14048 2.31309 6 2.66671 6H6.00004L7.33337 8H13.3334C13.687 8 14.0261 8.14048 14.2762 8.39052C14.5262 8.64057 14.6667 8.97971 14.6667 9.33333V16.6667Z" stroke="white" stroke-opacity="0.6" stroke-width="1.5" stroke-linecap="round" stroke-linejoin="round"/>
<line x1="25.5" y1="24" x2="25.5" stroke="#404040"/>
</svg>
