<svg width="27" height="24" viewBox="0 0 27 24" fill="none" xmlns="http://www.w3.org/2000/svg">
<g clip-path="url(#clip0)">
<path d="M11.1334 8.69248L13.4668 6.35915M14.8001 5.02582L13.4668 6.35915L14.8001 5.02582ZM8.39344 11.4325C8.73767 11.7721 9.01131 12.1765 9.19861 12.6223C9.38591 13.0682 9.48317 13.5467 9.48479 14.0302C9.48641 14.5138 9.39236 14.9929 9.20805 15.44C9.02374 15.8871 8.75282 16.2933 8.41087 16.6352C8.06893 16.9772 7.66272 17.2481 7.21564 17.4324C6.76856 17.6167 6.28944 17.7108 5.80586 17.7092C5.32229 17.7075 4.8438 17.6103 4.39797 17.423C3.95214 17.2357 3.54775 16.962 3.20811 16.6178C2.5402 15.9263 2.17062 15.0001 2.17897 14.0387C2.18733 13.0773 2.57295 12.1576 3.25277 11.4778C3.9326 10.798 4.85225 10.4124 5.81364 10.404C6.77503 10.3957 7.70123 10.7652 8.39278 11.4332L8.39344 11.4325ZM8.39344 11.4325L11.1334 8.69248L8.39344 11.4325ZM11.1334 8.69248L13.1334 10.6925L15.4668 8.35915L13.4668 6.35915L11.1334 8.69248Z" stroke="white" stroke-opacity="0.6" stroke-width="1.5" stroke-linecap="round" stroke-linejoin="round"/>
</g>
<line x1="26.5" y1="24" x2="26.5" stroke="#404040"/>
<defs>
<clipPath id="clip0">
<rect width="16" height="16" fill="white" transform="translate(0.800171 3.6925)"/>
</clipPath>
</defs>
</svg>
