<svg width="16" height="16" viewBox="0 0 16 16" fill="none" xmlns="http://www.w3.org/2000/svg">
<path d="M8.00004 8.66667C8.36823 8.66667 8.66671 8.36819 8.66671 8C8.66671 7.63181 8.36823 7.33334 8.00004 7.33334C7.63185 7.33334 7.33337 7.63181 7.33337 8C7.33337 8.36819 7.63185 8.66667 8.00004 8.66667Z" stroke="#E6E6E6" stroke-width="2" stroke-linecap="round" stroke-linejoin="round"/>
<path d="M12.6667 8.66667C13.0349 8.66667 13.3333 8.36819 13.3333 8C13.3333 7.63181 13.0349 7.33334 12.6667 7.33334C12.2985 7.33334 12 7.63181 12 8C12 8.36819 12.2985 8.66667 12.6667 8.66667Z" stroke="#E6E6E6" stroke-width="2" stroke-linecap="round" stroke-linejoin="round"/>
<path d="M3.33335 8.66667C3.70154 8.66667 4.00002 8.36819 4.00002 8C4.00002 7.63181 3.70154 7.33334 3.33335 7.33334C2.96516 7.33334 2.66669 7.63181 2.66669 8C2.66669 8.36819 2.96516 8.66667 3.33335 8.66667Z" stroke="#E6E6E6" stroke-width="2" stroke-linecap="round" stroke-linejoin="round"/>
<path d="M8.00004 4C8.36823 4 8.66671 3.70152 8.66671 3.33333C8.66671 2.96514 8.36823 2.66666 8.00004 2.66666C7.63185 2.66666 7.33337 2.96514 7.33337 3.33333C7.33337 3.70152 7.63185 4 8.00004 4Z" stroke="#E6E6E6" stroke-width="2" stroke-linecap="round" stroke-linejoin="round"/>
<path d="M12.6667 4C13.0349 4 13.3333 3.70152 13.3333 3.33333C13.3333 2.96514 13.0349 2.66666 12.6667 2.66666C12.2985 2.66666 12 2.96514 12 3.33333C12 3.70152 12.2985 4 12.6667 4Z" stroke="#E6E6E6" stroke-width="2" stroke-linecap="round" stroke-linejoin="round"/>
<path d="M3.33335 4C3.70154 4 4.00002 3.70152 4.00002 3.33333C4.00002 2.96514 3.70154 2.66666 3.33335 2.66666C2.96516 2.66666 2.66669 2.96514 2.66669 3.33333C2.66669 3.70152 2.96516 4 3.33335 4Z" stroke="#E6E6E6" stroke-width="2" stroke-linecap="round" stroke-linejoin="round"/>
<path d="M8.00004 13.3333C8.36823 13.3333 8.66671 13.0349 8.66671 12.6667C8.66671 12.2985 8.36823 12 8.00004 12C7.63185 12 7.33337 12.2985 7.33337 12.6667C7.33337 13.0349 7.63185 13.3333 8.00004 13.3333Z" stroke="#E6E6E6" stroke-width="2" stroke-linecap="round" stroke-linejoin="round"/>
<path d="M12.6667 13.3333C13.0349 13.3333 13.3333 13.0349 13.3333 12.6667C13.3333 12.2985 13.0349 12 12.6667 12C12.2985 12 12 12.2985 12 12.6667C12 13.0349 12.2985 13.3333 12.6667 13.3333Z" stroke="#E6E6E6" stroke-width="2" stroke-linecap="round" stroke-linejoin="round"/>
<path d="M3.33335 13.3333C3.70154 13.3333 4.00002 13.0349 4.00002 12.6667C4.00002 12.2985 3.70154 12 3.33335 12C2.96516 12 2.66669 12.2985 2.66669 12.6667C2.66669 13.0349 2.96516 13.3333 3.33335 13.3333Z" stroke="#E6E6E6" stroke-width="2" stroke-linecap="round" stroke-linejoin="round"/>
</svg>
