<svg width="17" height="17" viewBox="0 0 17 17" fill="none" xmlns="http://www.w3.org/2000/svg">
<path d="M12.1928 14.1111C13.2974 14.1111 14.1928 13.2157 14.1928 12.1111C14.1928 11.0066 13.2974 10.1111 12.1928 10.1111C11.0882 10.1111 10.1928 11.0066 10.1928 12.1111C10.1928 13.2157 11.0882 14.1111 12.1928 14.1111Z" stroke="#E6E6E6" stroke-linecap="round" stroke-linejoin="round"/>
<path d="M4.19281 6.11115C5.29738 6.11115 6.19281 5.21571 6.19281 4.11115C6.19281 3.00658 5.29738 2.11115 4.19281 2.11115C3.08824 2.11115 2.19281 3.00658 2.19281 4.11115C2.19281 5.21571 3.08824 6.11115 4.19281 6.11115Z" stroke="#E6E6E6" stroke-linecap="round" stroke-linejoin="round"/>
<path d="M8.8595 4.11115H10.8595C11.2131 4.11115 11.5523 4.25162 11.8023 4.50167C12.0524 4.75172 12.1928 5.09086 12.1928 5.44448V10.1111" stroke="#E6E6E6" stroke-linecap="round" stroke-linejoin="round"/>
<path d="M4.19281 6.11115V14.1111" stroke="#E6E6E6" stroke-linecap="round" stroke-linejoin="round"/>
</svg>
