<svg width="39" height="50" viewBox="0 0 39 50" fill="none" xmlns="http://www.w3.org/2000/svg">
<rect width="39" height="50" rx="2" fill="#4D4D4D"/>
<rect y="12" width="39" height="38" rx="2" fill="#E6E6E6"/>
<path d="M17.448 32.898C18.348 32.19 19.062 31.422 19.59 30.594C20.13 29.754 20.4 28.878 20.4 27.966C20.4 27.03 20.022 26.562 19.266 26.562C18.942 26.562 18.684 26.658 18.492 26.85C18.312 27.042 18.222 27.3 18.222 27.624C18.222 27.912 18.282 28.236 18.402 28.596L15.936 29.154C15.756 28.614 15.666 28.092 15.666 27.588C15.666 26.544 15.984 25.728 16.62 25.14C17.256 24.54 18.156 24.24 19.32 24.24C20.52 24.24 21.444 24.558 22.092 25.194C22.74 25.83 23.064 26.736 23.064 27.912C23.064 29.976 22.014 31.818 19.914 33.438V35.202H17.448V32.898ZM17.358 36.39H20.022V39H17.358V36.39Z" fill="#4D4D4D"/>
</svg>
