<svg width="27" height="24" viewBox="0 0 27 24" fill="none" xmlns="http://www.w3.org/2000/svg">
<path d="M14.1335 17.6925V16.3592C14.1335 15.6519 13.8525 14.9737 13.3524 14.4736C12.8523 13.9735 12.174 13.6925 11.4668 13.6925H6.13346C5.42622 13.6925 4.74794 13.9735 4.24785 14.4736C3.74775 14.9737 3.4668 15.6519 3.4668 16.3592V17.6925" stroke="white" stroke-opacity="0.6" stroke-width="1.5" stroke-linecap="round" stroke-linejoin="round"/>
<path d="M8.80021 11.0258C10.273 11.0258 11.4669 9.83193 11.4669 8.35917C11.4669 6.88641 10.273 5.6925 8.80021 5.6925C7.32745 5.6925 6.13354 6.88641 6.13354 8.35917C6.13354 9.83193 7.32745 11.0258 8.80021 11.0258Z" stroke="white" stroke-opacity="0.6" stroke-width="1.5" stroke-linecap="round" stroke-linejoin="round"/>
<line x1="26.5" y1="24" x2="26.5" stroke="#404040"/>
</svg>
